<?xml version="1.0" encoding="utf-8"?>
<!-- Generator: Adobe Illustrator 19.2.1, SVG Export Plug-In . SVG Version: 6.00 Build 0)  -->
<svg version="1.1" id="layer" xmlns="http://www.w3.org/2000/svg" xmlns:xlink="http://www.w3.org/1999/xlink" x="0px" y="0px"
	 viewBox="0 0 652 652" style="enable-background:new 0 0 652 652;" xml:space="preserve">
<style type="text/css">
	.st0{fill:#1D6EFF;}
	.st1{fill:#4599FF;}
	.st2{fill:#44BAFF;}
	.st3{fill:#37DAFF;}
	.st4{fill:#FFFFFF;}
</style>
<g>
	<g>
		<path class="st0" d="M135.4,385.9c0.8-1.2,1.8-1.2,2.6,0l11.4,20.9c0.8,1.2,2.3,2.9,3.6,3.6l21,11.4c1.4,0.8,1.4,1.8,0,2.6
			l-21,11.4c-1.4,0.8-2.9,2.3-3.6,3.6l-11.4,20.9c-0.8,1.2-1.8,1.2-2.6,0L124,439.3c-0.8-1.2-2.3-2.9-3.6-3.6l-21-11.4
			c-1.2-0.8-1.2-1.8,0-2.6l21-11.4c1.2-0.8,2.9-2.3,3.6-3.6L135.4,385.9z"/>
	</g>
</g>
<g>
	<g>
		<path class="st1" d="M97.9,228c1.5-2.7,3.9-2.7,5.3,0l23.9,43.5c1.5,2.7,4.8,6,7.5,7.5l43.7,23.7c2.7,1.5,2.7,3.8,0,5.3
			l-43.7,23.9c-2.7,1.5-6,4.8-7.5,7.5l-23.9,43.5c-1.5,2.7-3.8,2.7-5.3,0L74,339.4c-1.5-2.7-4.8-6-7.5-7.5L22.7,308
			c-2.7-1.5-2.7-3.8,0-5.3l43.7-23.9c2.7-1.5,6-4.8,7.5-7.5L97.9,228z"/>
	</g>
</g>
<g>
	<g>
		<path class="st2" d="M183.3,182.7c0.8-1.2,1.8-1.2,2.6,0l11.4,20.9c0.8,1.2,2.3,2.9,3.6,3.6l21,11.4c1.2,0.8,1.2,1.8,0,2.6
			l-21,11.4c-1.4,0.8-2.9,2.3-3.6,3.6L185.8,257c-0.8,1.2-1.8,1.2-2.6,0l-11.4-20.9c-0.8-1.2-2.3-2.9-3.6-3.6l-21-11.4
			c-1.4-0.8-1.4-1.8,0-2.6l21-11.4c1.2-0.8,2.9-2.3,3.6-3.6L183.3,182.7z"/>
	</g>
</g>
<g>
	<g>
		<path class="st3" d="M251.4,265.3c0.8-1.2,1.8-1.2,2.6,0l11.4,20.9c0.8,1.2,2.3,2.9,3.6,3.6l21,11.4c1.2,0.8,1.2,1.8,0,2.6
			l-21,11.4c-1.4,0.8-2.9,2.3-3.6,3.6l-11.4,20.9c-0.8,1.2-1.8,1.2-2.6,0L240,318.7c-0.8-1.2-2.3-2.9-3.6-3.6l-21-11.4
			c-1.2-0.8-1.2-1.8,0-2.6l21-11.4c1.2-0.8,2.9-2.3,3.6-3.6L251.4,265.3z"/>
	</g>
</g>
<g>
	<path class="st4" d="M178,450.9c-31.2,0-53.1-19.2-61.5-53.9c-4.2-17.6-9.2-28.4-21.9-31.7c-7.1-2-11.1-6.5-11.1-12.6
		c0-4.4,2.6-8.4,7.1-11.6c4.8-3.3,11-5,17.7-5c16.1,0,27,9.6,30.9,13.7l0.5,0.5l0.2-0.6c5-15.6,9.2-26,14.9-38.6V311v-0.2
		c-8.6-18.6-10.4-31.1-10.4-38.3c0-9.5,4.7-19.8,15-19.8c6.8,0,13.1,6.5,18.9,19.7l0.3,0.5l0.3-0.5c4.8-6.2,10.5-9.8,15.3-9.8
		c8,0,12.9,5.9,12.9,15.3c0,8.7-4.5,18.6-9,28.1c-1.5,3.2-2.9,6.3-4.1,9.2v0.2l5.4,12.9l0.3-0.2c2.1-0.9,4.4-1.4,6.6-1.4
		c1.8,0,3.5,0.3,5.1,0.9c6.3,2.4,9.6,9.2,8.7,18.2l-0.2,0.9l0.6-0.6c2-2,5.9-3,7.7-3c4.1,0,7.4,1.5,9.8,4.5c3.6,4.4,4.7,11.7,3,20
		c-0.5,2.1-1.2,5.1-2.4,7.8v0.2v0.2c0.8,4.5,1.4,8.4,1.4,13.4C240,423.1,212.2,450.9,178,450.9z"/>
	<path d="M228.1,342.5c-1.8,0-5.9,1.1-8,3.2c0.8-9.3-2.7-16.1-9-18.5c-3.9-1.4-8.3-1.1-11.9,0.6l-5.1-12.5
		c4.8-11.7,13.1-25.8,13.1-37.4c0-9-4.5-15.6-13.2-15.6c-5.3,0-11.1,4.4-15.6,9.9c-6-13.5-12.5-19.8-19.4-19.8
		c-10.8,0-15.3,10.8-15.3,20.1c0,7.7,2.1,20.4,10.4,38.3c-5.6,12.5-9.8,22.7-14.9,38.6c-6.6-6.9-17.4-13.8-31.2-13.8
		c-7.2,0-13.2,1.8-18,5.1c-4.5,3.2-7.2,7.4-7.2,11.9c0,6.6,4.5,11.1,11.4,12.9c11.9,3.2,17.1,12.8,21.6,31.5
		c8.3,33.8,29.3,54.2,61.8,54.2c34.4,0,62.4-28.1,62.4-62.4c0-5-0.6-9-1.4-13.5c1.1-2.7,1.8-5.6,2.4-8
		C244.3,352.9,238.8,342.5,228.1,342.5 M208.5,334.6c5.6,2.6,6,14.1,0.5,27.8c-4.5,13.2-11,21.3-17,21.3c-4.8,0-8.7-3.3-8.7-12.3
		C183.3,354.5,197.1,329.3,208.5,334.6 M151.4,272.6c0-5.6,2.4-12.2,7.7-12.2c3.8,0,8.3,5.9,13.5,17.4c-4.5,5.9-9.3,13.5-14,23
		C153.8,288.4,151.4,279.2,151.4,272.6 M178,443.4c-27.8,0-46.8-19.4-54.2-48.2c-5-19.8-11.4-33-27.5-37.2c-1.8-0.6-5.3-1.8-5.3-5.3
		c0-3.8,6.2-9,17.1-9c13.2,0,24,8.1,31.5,18.8l5.7-2.1c0.9-10.8,6.3-25.7,16.1-46.4c12.2-26.1,24.5-44,32.7-43.8
		c2.6,0,5.7,3.2,5.7,7.7c0,10.8-9.6,27-17.9,44.7c-0.9,1.8-4.7,10.2-4.7,10.2l5.4,2.4c1.8-3,5.6-10.2,6-11.4l4.1,9
		c-8.7,7.4-16.4,24.9-16.4,38.6c0,10.1,4.5,16.4,11.1,18.5c6,1.8,11.9,0.2,16.4-5.3c1.1,6.3,5.3,11.9,13.5,11.9
		c7.2,0,12-4.2,15.6-11.3C234.3,418.5,206.7,443.4,178,443.4 M234.3,366.4c-1.8,11.1-8.6,23.4-17,23.4c-8,0-7.5-10.5-5.6-16.8
		c2.9-11.4,10.7-23.3,16.5-23.3C233.4,349.7,235.8,356.9,234.3,366.4 M206.2,422.1c-23.6,13.4-45.5,4.8-53.7-19.5l6.9-3.2
		c6.8,19.8,26.1,25.4,44.1,15.9L206.2,422.1z M199.8,371.2c0,3.5-2.7,6.2-6.2,6.2s-6.2-2.7-6.2-6.2s2.7-6.2,6.2-6.2
		S199.8,367.7,199.8,371.2 M225.6,378.5c0,3-2.4,5.6-5.6,5.6c-3,0-5.6-2.4-5.6-5.6c0-3,2.4-5.6,5.6-5.6S225.6,375.5,225.6,378.5"/>
</g>
<path d="M319.1,267.4h-14v-10.7h40.1v10.7h-13.8v35h-12.3V267.4z"/>
<path d="M348,256.9h12.2v16.7H377v-16.7h12.2v45.6H377v-17.9h-16.8v17.9H348V256.9z"/>
<path d="M394.5,256.9h32.9v10.5h-20.7v6.9h17v9.9h-17v7.8h22.2v10.5h-34.2v-45.6H394.5z"/>
<path d="M305.4,312.5h11l17.6,25.4v-25.4h12v45.6h-10.4L317.4,332v26.1h-12V312.5z"/>
<path d="M364.1,312.5h13.8l16.2,45.6H381l-3-9.5h-15.3l-3,9.5h-12.5L364.1,312.5z M375.6,339.8l-5.1-16.8l-5.3,16.8H375.6z"/>
<path d="M399.6,323h-14v-10.7h40.1V323h-13.8v35h-12.3V323z"/>
<path d="M428.6,312.5h12.2v45.6h-12.2V312.5z"/>
<path d="M468.8,359.2c-3.5,0-6.6-0.6-9.5-1.8c-2.9-1.2-5.4-2.9-7.5-5c-2.1-2.1-3.8-4.7-5-7.7c-1.2-3-1.8-6.2-1.8-9.6
	s0.6-6.6,1.8-9.6c1.2-3,2.9-5.4,5-7.7c2.1-2.1,4.7-3.8,7.5-5c2.9-1.2,6-1.8,9.5-1.8c3.5,0,6.6,0.6,9.5,1.8c2.9,1.2,5.4,2.9,7.5,5
	c2.1,2.1,3.8,4.7,5,7.7s1.8,6.2,1.8,9.6s-0.6,6.6-1.8,9.6c-1.2,3-2.9,5.4-5,7.7c-2.1,2.1-4.7,3.8-7.5,5
	C475.4,358.6,472.3,359.2,468.8,359.2z M468.8,347.8c1.8,0,3.3-0.3,4.8-1.1c1.4-0.6,2.6-1.5,3.5-2.7c0.9-1.2,1.7-2.6,2.3-4.1
	c0.5-1.5,0.8-3.2,0.8-5c0-1.8-0.3-3.3-0.8-5c-0.5-1.5-1.2-2.9-2.3-4.1c-0.9-1.2-2.1-2.1-3.5-2.7c-1.4-0.6-3-1.1-4.8-1.1
	c-1.8,0-3.3,0.3-4.8,1.1c-1.4,0.6-2.6,1.5-3.5,2.7c-0.9,1.2-1.7,2.6-2.3,4.1c-0.5,1.5-0.8,3.2-0.8,5c0,1.8,0.3,3.3,0.8,5
	c0.5,1.5,1.2,2.9,2.3,4.1c0.9,1.2,2.1,2.1,3.5,2.7C465.5,347.5,467,347.8,468.8,347.8z"/>
<path d="M497,312.5h11l17.6,25.4v-25.4h12v45.6h-10.4L509,332v26.1h-12V312.5z"/>
<path d="M555.7,312.5h13.8l16.2,45.6h-13.1l-3-9.5h-15.3l-3,9.5h-12.5L555.7,312.5z M567.3,339.8l-5.1-16.8l-5.3,16.8H567.3z"/>
<path d="M587.4,312.5h12.2v35h21.2v10.7h-33.2v-45.6H587.4z"/>
<path d="M305.7,368h12.2v35H339v10.7h-33.2V368H305.7z"/>
<path d="M362.3,414.7c-3.5,0-6.6-0.6-9.5-1.8c-2.9-1.2-5.4-2.9-7.5-5c-2.1-2.1-3.8-4.7-5-7.7c-1.2-3-1.8-6.2-1.8-9.6
	s0.6-6.6,1.8-9.6c1.2-3,2.9-5.4,5-7.7c2.1-2.1,4.7-3.8,7.5-5c2.9-1.2,6-1.8,9.5-1.8c3.5,0,6.6,0.6,9.5,1.8s5.4,2.9,7.5,5
	c2.1,2.1,3.8,4.7,5,7.7c1.2,3,1.8,6.2,1.8,9.6c0,3.5-0.6,6.6-1.8,9.6c-1.2,3-2.9,5.4-5,7.7c-2.1,2.1-4.7,3.8-7.5,5
	C368.9,414.1,365.7,414.7,362.3,414.7z M362.3,403.5c1.8,0,3.3-0.3,4.8-1.1c1.4-0.6,2.6-1.5,3.5-2.7c0.9-1.2,1.7-2.6,2.3-4.1
	c0.5-1.5,0.8-3.2,0.8-5c0-1.8-0.3-3.3-0.8-5c-0.5-1.5-1.2-2.9-2.3-4.1c-0.9-1.2-2.1-2.1-3.5-2.7c-1.4-0.6-3-1.1-4.8-1.1
	c-1.8,0-3.3,0.3-4.8,1.1c-1.4,0.6-2.6,1.5-3.5,2.7c-0.9,1.2-1.7,2.6-2.3,4.1c-0.5,1.5-0.8,3.2-0.8,5c0,1.8,0.3,3.3,0.8,5
	c0.5,1.5,1.2,2.9,2.3,4.1c0.9,1.2,2.1,2.1,3.5,2.7C358.8,403.2,360.5,403.5,362.3,403.5z"/>
<path d="M399.6,378.7h-14V368h40.1v10.7h-13.8v35h-12.3V378.7z"/>
<path d="M442.1,378.7h-14V368h40.1v10.7h-13.8v35h-12.3L442.1,378.7L442.1,378.7z"/>
<path d="M471.1,368h32.9v10.5h-20.7v7.1h17v9.9h-17v7.8h22.2v10.5h-34.2V368H471.1z"/>
<path d="M509.2,368h18.9c2.4,0,4.7,0.3,6.6,0.9c2,0.6,3.8,1.7,5.1,2.9c1.4,1.2,2.6,2.9,3.3,4.7c0.8,1.8,1.2,4.1,1.2,6.5
	c0,3-0.6,5.6-2,7.8c-1.4,2.3-3,3.9-5.3,5.3l9.8,17.6h-13.1l-7.7-15.5H521v15.5h-11.9V368z M526.9,388.6c1.7,0,2.9-0.5,3.9-1.5
	s1.5-2.3,1.5-3.9c0-1.8-0.5-3.2-1.5-4.1c-0.9-1.1-2.3-1.5-4.1-1.5h-5.9v11H526.9z"/>
<path d="M558.4,395.5L542.2,368H556l8.9,16.2l8.4-16.2h13.5l-16.2,27.3v18.3h-12.2V395.5L558.4,395.5z"/>
<g>
	<path d="M600.3,390.9c-1.7,0-3.2-0.3-4.5-0.9c-1.4-0.6-2.6-1.4-3.6-2.4c-1.1-1.1-1.8-2.3-2.4-3.6c-0.6-1.4-0.9-2.9-0.9-4.5
		s0.3-3.2,0.9-4.5s1.4-2.6,2.4-3.6s2.3-1.8,3.6-2.4c1.4-0.6,2.9-0.9,4.5-0.9s3,0.3,4.5,0.9c1.4,0.6,2.6,1.4,3.6,2.4
		c1.1,1.1,1.8,2.3,2.4,3.6c0.6,1.4,0.9,2.9,0.9,4.5s-0.3,3-0.9,4.5c-0.6,1.4-1.4,2.6-2.4,3.6s-2.3,1.8-3.6,2.4
		C603.3,390.6,601.8,390.9,600.3,390.9z M600.3,388.8c1.4,0,2.6-0.3,3.6-0.8c1.1-0.5,2.1-1.1,2.9-2c0.8-0.9,1.4-1.8,1.8-2.9
		c0.5-1.1,0.6-2.3,0.6-3.6s-0.2-2.6-0.6-3.6c-0.5-1.1-1.1-2.1-1.8-3c-0.8-0.9-1.8-1.5-2.9-2c-1.1-0.5-2.3-0.8-3.6-0.8
		c-1.4,0-2.4,0.3-3.6,0.8c-1.1,0.5-2.1,1.2-2.9,2c-0.8,0.9-1.5,1.8-2,3c-0.5,1.1-0.6,2.3-0.6,3.6s0.2,2.6,0.6,3.6
		c0.5,1.1,1.1,2.1,1.8,2.9c0.8,0.8,1.8,1.5,2.9,2C597.7,388.5,598.9,388.8,600.3,388.8z M596.2,373.6h4.5c0.8,0,1.4,0.2,1.8,0.3
		c0.5,0.2,0.9,0.5,1.4,0.8c0.3,0.3,0.6,0.8,0.8,1.1c0.2,0.5,0.2,0.8,0.2,1.2c0,0.8-0.2,1.4-0.6,2c-0.3,0.6-0.9,1.1-1.7,1.4l2.9,4.8
		h-2.6l-2.6-4.5h-1.8v4.5h-2.3L596.2,373.6L596.2,373.6z M600.6,379c0.6,0,1.2-0.2,1.5-0.5c0.3-0.3,0.5-0.8,0.5-1.4
		s-0.2-1.1-0.5-1.4c-0.3-0.3-0.9-0.5-1.5-0.5h-2.1v3.5h2.1V379z"/>
</g>
</svg>
